<?xml version="1.0" encoding="UTF-8"?>
<svg id="Lag_2" xmlns="http://www.w3.org/2000/svg" version="1.1" viewBox="0 0 1920 1080">
  <!-- Generator: Adobe Illustrator 29.0.1, SVG Export Plug-In . SVG Version: 2.1.0 Build 192)  -->
  <defs>
    <style>
      .st0 {
        fill: #e2ce8d;
      }

      .st1 {
        fill: #aaba6e;
      }

      .st2 {
        fill: #f9f1d5;
        isolation: isolate;
      }

      .st2, .st3 {
        opacity: .6;
      }

      .st4 {
        fill: #94a062;
      }

      .st5 {
        fill: #c9b16f;
      }

      .st6 {
        fill: #e2bd56;
      }
    </style>
  </defs>
  <rect class="st2" width="1920" height="1080"/>
  <g class="st3">
    <path class="st5" d="M1248.7,186.1c8.4,5.9,17,5.6,27.2,5.6h48.3c8.2,0,12.4.6,18.2-2.2,6.3-3.5,8.5-12.6,5.5-19.4-6.7-15-22-25.8-37.4-31-11.3-3.7-23.6-3.8-34.9.3-17.8,6-52.4,28.5-27,46.7h.1Z"/>
    <polygon class="st0" points="1287.1 191.7 1281.3 210.4 1276.1 230.8 1272.5 253.5 1267.4 290.7 1267.4 322.8 1267.4 365.1 1267.4 398.7 1267.4 467.3 1267.4 500.8 1277.2 503.8 1277.2 487.7 1277.2 323.5 1277.2 289.2 1282 252.7 1287.1 228.6 1294.4 203.8 1301.5 191.6 1287.1 191.7"/>
  </g>
  <g class="st3">
    <path class="st4" d="M1196.3,269.8c20.7-5.2,40.8-7.4,59.8-5.4l-34.4-15-25.4,20.3h0Z"/>
    <path class="st0" d="M1218.5,257.6c-.6,2.1.7,5.4,1.7,7.8,1.2,2.8,2.3,5.8,3.1,8.9,3,9.8,4.5,19.8,6.1,29.9,1.4,9,2.8,18.6,2.6,28,0,6.2,0,9.8-.7,16.8-1.5,16.8-2.8,33.2-4.8,49.8-3.2,18.9-8,37.5-11.9,56.4-1.4,6.3-2.5,12.3-4.5,18.1-1.3,3.8-2.7,7.7-4,11.4-1,2.6-2.5,7.4,0,8.3,4.6.8,7.5-8.5,8.9-12.4,2-5.2,3.1-9.1,4.2-14.8,4.6-20.5,9-41.2,12.5-61.8,1.4-9.9,2.1-23.2,3.2-33.8.8-10.4,1.9-19.8,2.4-30.1.4-10.3,0-21.3-1.3-31.9-.9-8.3-2.3-16.9-4.3-25.1-1.9-6.4-4.7-13.6-7.2-20.1-.8-2.3-4.6-7.8-5.9-5.4h0Z"/>
    <path class="st1" d="M1193.9,269.4c1,.6,2.3.6,3.8,0,2.4-.8,5-2.1,7.5-3,5.6-2.2,10.6-3.4,16.4-4.5,5.5-1,11-1.7,16.6-1,5.1.6,10.6,1.7,15.5,2.9,10.3,2.8,6.1-3.8,2.5-8.8-5.7-8.3-13.4-14.6-21.7-20.1-11-8.1-25.1-10.9-33.9,1.8-4.5,6.8-7,15.1-7.9,23.2-.4,2.9-.9,8.1,1.3,9.3h-.1Z"/>
  </g>
  <g class="st3">
    <g>
      <path class="st6" d="M238.9,431.7c-6.4,4.7-13,4.5-20.8,4.5h-36.9c-6.3,0-9.5.5-13.9-1.8-4.8-2.8-6.5-10.2-4.2-15.7,5.1-12.1,16.8-20.9,28.5-25.1,8.6-3,18.1-3.1,26.6.3,13.6,4.9,40,23.1,20.6,37.8h0Z"/>
      <polygon class="st6" points="209.6 436.2 214 451.4 217.9 467.9 220.7 486.2 224.6 516.3 224.6 542.2 224.6 576.5 224.6 603.6 224.6 659.1 224.6 686.3 217.1 688.6 217.1 675.6 217.1 542.8 217.1 515.1 213.5 485.6 209.6 466.1 204 446 198.6 436.2 209.6 436.2"/>
    </g>
    <g>
      <path class="st5" d="M215.2,403c8.4,5.9,17,5.6,27.2,5.6h48.3c8.2,0,12.4.6,18.2-2.2,6.3-3.5,8.5-12.6,5.5-19.4-6.7-15-22-25.8-37.4-31-11.3-3.7-23.6-3.8-34.9.3-17.8,6-52.4,28.5-27,46.7h0Z"/>
      <polygon class="st0" points="253.6 408.6 247.8 427.4 242.7 447.8 239.1 470.4 233.9 507.6 233.9 539.7 233.9 582 233.9 615.6 233.9 684.2 233.9 717.8 243.8 720.7 243.8 704.7 243.8 540.5 243.8 506.2 248.5 469.7 253.6 445.6 261 420.8 268.1 408.6 253.6 408.6"/>
    </g>
    <g>
      <path class="st4" d="M162.8,486.8c20.7-5.2,40.8-7.4,59.8-5.4l-34.4-15-25.4,20.3h0Z"/>
      <path class="st0" d="M185,474.6c-.6,2.1.7,5.4,1.7,7.8,1.2,2.8,2.3,5.8,3.1,8.9,2.9,9.8,4.5,19.8,6.1,29.9,1.4,9,2.9,18.6,2.6,28,0,6.2,0,9.8-.7,16.8-1.5,16.8-2.9,33.2-4.8,49.8-3.2,18.9-8,37.5-11.9,56.4-1.4,6.3-2.4,12.3-4.6,18.1-1.3,3.8-2.7,7.7-4,11.4-1,2.6-2.5,7.4,0,8.3,4.6.8,7.5-8.5,8.9-12.4,2-5.2,3.1-9.1,4.2-14.8,4.6-20.5,9-41.2,12.6-61.8,1.4-9.9,2.1-23.2,3.2-33.8.9-10.4,1.9-19.8,2.4-30.1.4-10.3,0-21.3-1.4-31.9-.9-8.3-2.3-16.9-4.3-25.1-1.9-6.4-4.7-13.6-7.2-20.1-.8-2.3-4.6-7.8-5.9-5.4h0Z"/>
      <path class="st1" d="M160.5,486.3c1,.6,2.3.6,3.8,0,2.4-.8,5-2.1,7.5-3,5.6-2.2,10.6-3.4,16.4-4.5,5.4-1,11-1.7,16.6-1,5.1.6,10.6,1.7,15.5,2.9,10.3,2.8,6.1-3.8,2.4-8.8-5.7-8.3-13.4-14.6-21.7-20.1-11-8.1-25.1-10.9-33.9,1.8-4.5,6.8-7,15.1-7.9,23.2-.4,2.9-.9,8.1,1.3,9.3h0,0Z"/>
    </g>
  </g>
  <g class="st3">
    <g>
      <path class="st6" d="M1720.7,428.7c-6.4,4.7-13,4.5-20.8,4.5h-36.9c-6.3,0-9.5.5-13.9-1.8-4.8-2.8-6.5-10.2-4.2-15.7,5.1-12.1,16.8-20.9,28.5-25.1,8.6-3,18.1-3.1,26.6.3,13.6,4.9,40,23.1,20.6,37.8h.1Z"/>
      <polygon class="st6" points="1691.4 433.2 1695.8 448.4 1699.7 464.9 1702.5 483.2 1706.4 513.3 1706.4 539.3 1706.4 573.5 1706.4 600.7 1706.4 656.2 1706.4 683.3 1698.9 685.7 1698.9 672.7 1698.9 539.9 1698.9 512.1 1695.3 482.6 1691.4 463.1 1685.8 443.1 1680.3 433.2 1691.4 433.2"/>
    </g>
    <g>
      <path class="st5" d="M1697,400.1c8.4,5.9,17,5.6,27.2,5.6h48.3c8.2,0,12.4.6,18.2-2.2,6.3-3.5,8.5-12.6,5.5-19.4-6.7-15-22-25.8-37.4-31-11.3-3.7-23.6-3.8-34.9.3-17.8,6-52.4,28.5-27,46.7h.1Z"/>
      <polygon class="st0" points="1735.4 405.6 1729.6 424.4 1724.5 444.8 1720.8 467.4 1715.7 504.7 1715.7 536.8 1715.7 579.1 1715.7 612.7 1715.7 681.2 1715.7 714.8 1725.6 717.7 1725.6 701.7 1725.6 537.5 1725.6 503.2 1730.3 466.7 1735.4 442.6 1742.8 417.8 1749.9 405.6 1735.4 405.6"/>
    </g>
    <g>
      <path class="st4" d="M1644.6,483.8c20.7-5.2,40.8-7.4,59.8-5.4l-34.4-15-25.4,20.3h0Z"/>
      <path class="st0" d="M1666.8,471.6c-.6,2.1.7,5.4,1.7,7.8,1.2,2.8,2.3,5.8,3.1,8.9,2.9,9.8,4.5,19.8,6.1,29.9,1.4,9,2.8,18.6,2.6,28,0,6.2,0,9.8-.7,16.8-1.5,16.8-2.8,33.2-4.8,49.8-3.2,18.9-8,37.5-11.9,56.4-1.4,6.3-2.4,12.3-4.6,18.1-1.3,3.8-2.7,7.7-4,11.4-1,2.6-2.5,7.4,0,8.3,4.6.8,7.5-8.5,8.9-12.4,2-5.2,3.1-9.1,4.2-14.8,4.6-20.5,9-41.2,12.6-61.8,1.4-9.9,2.1-23.2,3.2-33.8.8-10.4,1.9-19.8,2.4-30.1.4-10.3,0-21.3-1.3-31.9-.9-8.3-2.3-16.9-4.3-25.1-1.9-6.4-4.7-13.6-7.2-20.1-.8-2.3-4.6-7.8-5.9-5.4h0Z"/>
      <path class="st1" d="M1642.3,483.4c1,.6,2.3.6,3.8,0,2.4-.8,5-2.1,7.5-3,5.6-2.2,10.6-3.4,16.4-4.5,5.4-1,11-1.7,16.6-1,5.1.6,10.6,1.7,15.5,2.9,10.3,2.8,6.1-3.8,2.4-8.8-5.7-8.3-13.4-14.6-21.7-20.1-11-8.1-25.1-10.9-33.9,1.8-4.5,6.8-7,15.1-7.9,23.2-.4,2.9-.9,8.1,1.3,9.3h0Z"/>
    </g>
  </g>
  <g class="st3">
    <path class="st5" d="M427.6,661.6c8.4,5.9,17,5.6,27.2,5.6h48.3c8.2,0,12.4.6,18.2-2.2,6.3-3.5,8.5-12.6,5.5-19.4-6.7-15-22-25.8-37.4-31-11.3-3.7-23.6-3.8-34.9.3-17.8,6-52.4,28.5-27,46.7h.1,0Z"/>
    <polygon class="st0" points="466.1 667.1 460.2 685.9 455.1 706.3 451.5 728.9 446.4 766.2 446.4 798.3 446.4 840.6 446.4 874.2 446.4 942.8 446.4 976.3 456.2 979.2 456.2 963.2 456.2 799 456.2 764.7 461 728.2 466.1 704.1 473.4 679.3 480.5 667.1 466.1 667.1"/>
  </g>
  <g class="st3">
    <path class="st4" d="M375.2,745.3c20.7-5.2,40.8-7.4,59.8-5.4l-34.4-15-25.4,20.3h0Z"/>
    <path class="st0" d="M397.5,733.1c-.6,2.1.7,5.4,1.7,7.8,1.2,2.8,2.3,5.8,3.1,8.9,3,9.8,4.5,19.8,6.1,29.9,1.4,9,2.8,18.6,2.6,28,0,6.2,0,9.8-.7,16.8-1.5,16.8-2.8,33.2-4.8,49.8-3.2,18.9-8,37.5-11.9,56.4-1.4,6.3-2.5,12.3-4.5,18.1-1.3,3.8-2.7,7.7-4,11.4-1,2.6-2.5,7.4,0,8.3,4.6.8,7.5-8.5,8.9-12.4,2-5.2,3.1-9.1,4.2-14.8,4.6-20.5,9-41.2,12.5-61.8,1.4-9.9,2.1-23.2,3.2-33.8.8-10.4,1.9-19.8,2.4-30.1.4-10.3-.1-21.3-1.3-31.9-.9-8.3-2.3-16.9-4.3-25.1-1.9-6.4-4.7-13.6-7.2-20.1-.8-2.3-4.6-7.8-5.9-5.4h-.1Z"/>
    <path class="st1" d="M372.9,744.9c1,.6,2.3.6,3.8,0,2.4-.8,5-2.1,7.5-3,5.6-2.2,10.6-3.4,16.4-4.5,5.5-1,11-1.7,16.6-1,5.1.6,10.6,1.7,15.5,2.9,10.3,2.8,6.1-3.8,2.5-8.8-5.7-8.3-13.4-14.6-21.7-20.1-11-8.1-25.1-10.9-33.9,1.8-4.5,6.8-7,15.1-7.9,23.2-.4,2.9-.9,8.1,1.3,9.3h0v.2Z"/>
  </g>
  <g class="st3">
    <g>
      <path class="st6" d="M1045.7,690.2c-6.4,4.7-13,4.5-20.8,4.5h-36.9c-6.3,0-9.5.5-13.9-1.8-4.8-2.8-6.5-10.2-4.2-15.7,5.1-12.1,16.8-20.9,28.5-25.1,8.6-3,18.1-3.1,26.6.3,13.6,4.9,40,23.1,20.6,37.8h.1Z"/>
      <polygon class="st6" points="1016.4 694.7 1020.9 709.9 1024.8 726.4 1027.5 744.7 1031.5 774.8 1031.5 800.8 1031.5 835 1031.5 862.2 1031.5 917.7 1031.5 944.8 1023.9 947.2 1023.9 934.2 1023.9 801.4 1023.9 773.6 1020.3 744.1 1016.4 724.7 1010.8 704.6 1005.4 694.7 1016.4 694.7"/>
    </g>
    <g>
      <path class="st5" d="M1022.1,661.6c8.4,5.9,17,5.6,27.2,5.6h48.3c8.2,0,12.4.6,18.2-2.2,6.3-3.5,8.5-12.6,5.5-19.4-6.7-15-22-25.8-37.4-31-11.3-3.7-23.6-3.8-34.9.3-17.8,6-52.4,28.5-27,46.7h.1Z"/>
      <polygon class="st0" points="1060.5 667.2 1054.6 685.9 1049.5 706.3 1045.9 728.9 1040.8 766.2 1040.8 798.3 1040.8 840.6 1040.8 874.2 1040.8 942.8 1040.8 976.3 1050.6 979.2 1050.6 963.2 1050.6 799 1050.6 764.7 1055.4 728.2 1060.5 704.1 1067.8 679.3 1074.9 667.1 1060.5 667.2"/>
    </g>
    <g>
      <path class="st4" d="M969.6,745.3c20.7-5.2,40.8-7.4,59.8-5.4l-34.4-15-25.4,20.3h0Z"/>
      <path class="st0" d="M991.9,733.1c-.6,2.1.7,5.4,1.7,7.8,1.2,2.8,2.3,5.8,3.1,8.9,2.9,9.8,4.5,19.8,6.1,29.9,1.4,9,2.9,18.6,2.6,28,0,6.2,0,9.8-.7,16.8-1.5,16.8-2.9,33.2-4.8,49.8-3.2,18.9-8,37.5-11.9,56.4-1.4,6.3-2.4,12.3-4.6,18.1-1.3,3.8-2.7,7.7-4,11.4-1,2.6-2.5,7.4,0,8.3,4.6.8,7.5-8.5,8.9-12.4,2-5.2,3.1-9.1,4.2-14.8,4.6-20.5,9-41.2,12.6-61.8,1.4-9.9,2.1-23.2,3.2-33.8.9-10.4,1.9-19.8,2.4-30.1.4-10.3,0-21.3-1.4-31.9-.9-8.3-2.3-16.9-4.3-25.1-1.9-6.4-4.7-13.6-7.2-20.1-.8-2.3-4.6-7.8-5.9-5.4h0Z"/>
      <path class="st1" d="M967.3,744.9c1,.6,2.3.6,3.8,0,2.4-.8,5-2.1,7.5-3,5.6-2.2,10.6-3.4,16.4-4.5,5.4-1,11-1.7,16.6-1,5.1.6,10.6,1.7,15.5,2.9,10.3,2.8,6.1-3.8,2.4-8.8-5.7-8.3-13.4-14.6-21.7-20.1-11-8.1-25.1-10.9-33.9,1.8-4.5,6.8-7,15.1-7.9,23.2-.4,2.9-.9,8.1,1.3,9.3h0v.2Z"/>
    </g>
  </g>
  <g class="st3">
    <g>
      <path class="st6" d="M675.7,164.6c-6.4,4.7-13,4.5-20.8,4.5h-36.9c-6.3,0-9.5.5-13.9-1.8-4.8-2.8-6.5-10.2-4.2-15.7,5.1-12.1,16.8-20.9,28.5-25.1,8.6-3,18.1-3.1,26.6.3,13.6,4.9,40,23.1,20.6,37.8h.1Z"/>
      <polygon class="st6" points="646.3 169.1 650.8 184.2 654.7 200.8 657.5 219 661.4 249.1 661.4 275.1 661.4 309.4 661.4 336.5 661.4 392 661.4 419.1 653.9 421.5 653.9 408.5 653.9 275.7 653.9 248 650.2 218.5 646.3 199 640.7 178.9 635.3 169 646.3 169.1"/>
    </g>
    <g>
      <path class="st5" d="M652,135.9c8.4,5.9,17,5.6,27.2,5.6h48.3c8.2,0,12.4.6,18.2-2.2,6.3-3.5,8.5-12.6,5.5-19.4-6.7-15-22-25.8-37.4-31-11.3-3.7-23.6-3.8-34.9.3-17.8,6-52.4,28.5-27,46.7h.1Z"/>
      <polygon class="st0" points="690.4 141.5 684.6 160.2 679.5 180.7 675.8 203.3 670.7 240.5 670.7 272.6 670.7 314.9 670.7 348.5 670.7 417.1 670.7 450.7 680.6 453.6 680.6 437.5 680.6 273.3 680.6 239 685.3 202.5 690.4 178.5 697.7 153.7 704.8 141.5 690.4 141.5"/>
    </g>
    <g>
      <path class="st4" d="M599.6,219.7c20.7-5.2,40.8-7.4,59.8-5.4l-34.4-15-25.4,20.3h0Z"/>
      <path class="st0" d="M621.8,207.5c-.6,2.1.7,5.4,1.7,7.8,1.2,2.8,2.3,5.8,3.1,8.9,2.9,9.8,4.5,19.8,6.1,29.9,1.4,9,2.9,18.6,2.6,28,0,6.2,0,9.8-.7,16.8-1.5,16.8-2.9,33.2-4.8,49.8-3.2,18.9-8,37.5-11.9,56.4-1.4,6.3-2.4,12.3-4.6,18.1-1.3,3.8-2.7,7.7-4,11.4-1,2.6-2.5,7.4,0,8.3,4.6.8,7.5-8.5,8.9-12.4,2-5.2,3.1-9.1,4.2-14.8,4.6-20.5,9-41.2,12.6-61.8,1.4-9.9,2.1-23.2,3.2-33.8.9-10.4,1.9-19.8,2.4-30.1.4-10.3,0-21.3-1.4-31.9-.9-8.3-2.3-16.9-4.3-25.1-1.9-6.4-4.7-13.6-7.2-20.1-.8-2.3-4.6-7.8-5.9-5.4h0Z"/>
      <path class="st1" d="M597.2,219.2c1,.6,2.3.6,3.8,0,2.4-.8,5-2.1,7.5-3,5.6-2.2,10.6-3.4,16.4-4.5,5.4-1,11-1.7,16.6-1,5.1.6,10.6,1.7,15.5,2.9,10.3,2.8,6.1-3.8,2.4-8.8-5.7-8.3-13.4-14.6-21.7-20.1-11-8.1-25.1-10.9-33.9,1.8-4.5,6.8-7,15.1-7.9,23.2-.4,2.9-.9,8.1,1.3,9.3h0Z"/>
    </g>
  </g>
  <g class="st3">
    <path class="st5" d="M1497.7,661.6c8.4,5.9,17,5.6,27.2,5.6h48.3c8.2,0,12.4.6,18.2-2.2,6.3-3.5,8.5-12.6,5.5-19.4-6.7-15-22-25.8-37.4-31-11.3-3.7-23.6-3.8-34.9.3-17.8,6-52.4,28.5-27,46.7h.1Z"/>
    <polygon class="st0" points="1536.2 667.2 1530.3 685.9 1525.2 706.3 1521.6 729 1516.4 766.2 1516.4 798.3 1516.4 840.6 1516.4 874.2 1516.4 942.8 1516.4 976.3 1526.3 979.3 1526.3 963.2 1526.3 799 1526.3 764.7 1531 728.2 1536.2 704.1 1543.5 679.3 1550.6 667.1 1536.2 667.2"/>
  </g>
  <g class="st3">
    <path class="st4" d="M1445.3,745.3c20.7-5.2,40.8-7.4,59.8-5.4l-34.4-15-25.4,20.3h0Z"/>
    <path class="st0" d="M1467.5,733.1c-.6,2.1.7,5.4,1.7,7.8,1.2,2.8,2.3,5.8,3.1,8.9,3,9.8,4.5,19.8,6.1,29.9,1.4,9,2.8,18.6,2.6,28,0,6.2,0,9.8-.7,16.8-1.5,16.8-2.8,33.2-4.8,49.8-3.2,18.9-8,37.5-11.9,56.4-1.4,6.3-2.5,12.3-4.5,18.1-1.3,3.8-2.7,7.7-4,11.4-1,2.6-2.5,7.4,0,8.3,4.6.8,7.5-8.5,8.9-12.4,2-5.2,3.1-9.1,4.2-14.8,4.6-20.5,9-41.2,12.5-61.8,1.4-9.9,2.1-23.2,3.2-33.8.8-10.4,1.9-19.8,2.4-30.1.4-10.3,0-21.3-1.3-31.9-.9-8.3-2.3-16.9-4.3-25.1-1.9-6.4-4.7-13.6-7.2-20.1-.8-2.3-4.6-7.8-5.9-5.4h0Z"/>
    <path class="st1" d="M1443,744.9c1,.6,2.3.6,3.8,0,2.4-.8,5-2.1,7.5-3,5.6-2.2,10.6-3.4,16.4-4.5,5.5-1,11-1.7,16.6-1,5.1.6,10.6,1.7,15.5,2.9,10.3,2.8,6.1-3.8,2.5-8.8-5.7-8.3-13.4-14.6-21.7-20.1-11-8.1-25.1-10.9-33.9,1.8-4.5,6.8-7,15.1-7.9,23.2-.4,2.9-.9,8.1,1.3,9.3h0v.2Z"/>
  </g>
</svg>