<?xml version="1.0" encoding="UTF-8"?>
<svg id="Lag_2" data-name="Lag 2" xmlns="http://www.w3.org/2000/svg" viewBox="0 0 1031.66 548.41">
  <defs>
    <style>
      .cls-1 {
        fill: #e2ce8d;
      }

      .cls-2 {
        fill: #aaba6e;
      }

      .cls-3 {
        fill: #faf0d1;
      }

      .cls-4 {
        fill: #94a062;
      }

      .cls-5 {
        fill: #c9b16f;
      }

      .cls-6 {
        fill: #e2bd56;
      }
    </style>
  </defs>
  <g id="Lag_2-2" data-name="Lag 2">
    <g>
      <ellipse class="cls-3" cx="520.64" cy="299.09" rx="479.09" ry="249.32"/>
      <path class="cls-6" d="M358.34,217.7c-23.41,29.17-53.06,36.17-88.54,45.37-24.98,6.66-56.83,15.17-88.34,23.54-26.22,7-52.17,13.93-78.18,20.87-28.62,7.07-42.35,13.52-65,8.65C13.09,309.2-3.18,277.97.53,250.31c8.37-60.88,50.86-114.56,98.7-147.71,35.42-23.82,77.84-35.62,120.6-30.89,67.13,5.7,208.45,56.01,138.58,145.92h0l-.07.07Z"/>
      <polyline class="cls-6" points="317.17 525.17 304.35 489.79 260.7 402.6 208 314.82 169.38 275.03 222.38 261.24 263.18 327.25 303.11 400.44 339.9 483.4 370.5 535.92"/>
      <g>
        <path class="cls-5" d="M568.24,279.5c38.92,27.01,78.25,25.93,125.57,25.59h222.51c38.04-.68,57.34,2.64,84.01-10.22,29.11-16.11,38.99-57.95,25.18-89.36-30.73-69.05-101.61-118.94-172.21-142.97-52.12-16.99-108.92-17.53-160.71,1.49-81.84,27.75-241.47,131.46-124.35,215.47h0Z"/>
        <polyline class="cls-1" points="735.56 521.97 745.39 475.68 779.24 361.34 811.87 305.09 745.39 305.22 718.45 391.6 694.89 485.83 673.41 535.47"/>
      </g>
      <g>
        <path class="cls-4" d="M637.86,212.78c-96.11-26.34-188.95-37.5-277.24-27.43l159.55-76.23,117.62,103.67h.07Z"/>
        <path class="cls-1" d="M443.52,544.79c1.16-25.53,8.45-51.72,10.56-76.9,4.22-53.02,10.48-108.43,19.81-161.05,8.64-40.77,21.78-87.13,33.49-128.65,3.88-14.5,21.3-49.76,27.36-34.37l.14.54c2.86,13.55-3.2,34.78-8.1,49.69-5.58,17.83-10.55,37.44-14.57,57.04-13.68,63.03-20.69,127.01-28.18,191.54-2.99,26.95-9.89,76.19-12.21,104.23"/>
        <path class="cls-2" d="M648.68,210.39c-4.42,3.13-10.69,2.99-17.7.61-11.23-4.02-23.21-10.69-34.58-15.25-26.07-11.16-49.08-17.29-75.89-22.8-25.25-5.31-50.98-8.44-76.92-4.9-23.69,3.06-48.94,8.64-71.67,14.57-47.65,14.36-28.11-19.4-11.37-44.99,26.61-42.27,62.15-74.6,100.4-102.3,51.12-41.45,116.53-55.68,157.23,8.98,20.9,34.37,32.26,76.92,36.76,118.44,1.7,14.97,4.02,41.45-5.85,47.24l-.48.34.07.07Z"/>
      </g>
    </g>
  </g>
</svg>