<?xml version="1.0" encoding="UTF-8"?>
<svg id="Lag_2" xmlns="http://www.w3.org/2000/svg" version="1.1" viewBox="0 0 160 100">
  <!-- Generator: Adobe Illustrator 29.0.1, SVG Export Plug-In . SVG Version: 2.1.0 Build 192)  -->
  <defs>
    <style>
      .st0 {
        fill: #e2ce8d;
      }

      .st1 {
        fill: #aaba6e;
      }

      .st2 {
        fill: #faf0d1;
      }

      .st3 {
        fill: #94a062;
      }

      .st4 {
        fill: #c9b16f;
      }

      .st5 {
        fill: #e2bd56;
      }
    </style>
  </defs>
  <ellipse class="st2" cx="80.7" cy="51" rx="73.2" ry="38.1"/>
  <path class="st5" d="M56,38.5c-3.6,4.5-8.1,5.5-13.5,6.9-3.8,1-8.7,2.3-13.5,3.6-4,1.1-8,2.1-11.9,3.2-4.4,1.1-6.5,2.1-9.9,1.3-3.8-1.1-6.3-5.8-5.8-10.1,1.3-9.3,7.8-17.5,15.1-22.6,5.4-3.6,11.9-5.4,18.4-4.7,10.2.9,31.8,8.6,21.2,22.3h0Z"/>
  <polyline class="st5" points="49.7 85.5 47.7 80.1 41 66.8 33 53.4 27.1 47.3 35.2 45.2 41.4 55.3 47.5 66.4 53.1 79.1 57.8 87.1"/>
  <g>
    <path class="st4" d="M88,48c5.9,4.1,11.9,4,19.2,3.9h34c5.8-.1,8.8.4,12.8-1.6,4.4-2.5,6-8.8,3.8-13.6-4.7-10.5-15.5-18.2-26.3-21.8-8-2.6-16.6-2.7-24.5.2-12.5,4.2-36.9,20.1-19,32.9h0Z"/>
    <polyline class="st0" points="113.6 85 115.1 77.9 120.2 60.5 125.2 51.9 115.1 51.9 110.9 65.1 107.3 79.5 104.1 87.1"/>
  </g>
  <g>
    <path class="st3" d="M98.6,37.8c-14.7-4-28.9-5.7-42.3-4.2l24.4-11.6,18,15.8h0Z"/>
    <path class="st0" d="M69,88.5c.2-3.9,1.3-7.9,1.6-11.7.6-8.1,1.6-16.6,3-24.6,1.3-6.2,3.3-13.3,5.1-19.6.6-2.2,3.3-7.6,4.2-5.2h0c.4,2.2-.5,5.4-1.2,7.7-.9,2.7-1.6,5.7-2.2,8.7-2.1,9.6-3.2,19.4-4.3,29.2-.5,4.1-1.5,11.6-1.9,15.9"/>
    <path class="st1" d="M100.3,37.4c-.7.5-1.6.5-2.7,0-1.7-.6-3.5-1.6-5.3-2.3-4-1.7-7.5-2.6-11.6-3.5-3.9-.8-7.8-1.3-11.7-.7-3.6.5-7.5,1.3-10.9,2.2-7.3,2.2-4.3-3-1.7-6.9,4.1-6.5,9.5-11.4,15.3-15.6,7.8-6.3,17.8-8.5,24,1.4,3.2,5.2,4.9,11.7,5.6,18.1.3,2.3.6,6.3-.9,7.2h0c0,0,0,0,0,0Z"/>
  </g>
</svg>